{
  "accessors": [
    {
      "bufferView": 2,
      "componentType": 5126,
      "count": 59435,
      "max": [
        0.13958443701267242,
        0.34164753556251526,
        0.20322087407112122
      ],
      "min": [
        -0.11311822384595871,
        -0.1640310287475586,
        -0.03260832279920578
      ],
      "type": "VEC3"
    },
    {
      "bufferView": 2,
      "byteOffset": 713220,
      "componentType": 5126,
      "count": 59435,
      "max": [
        0.999988317489624,
        0.9996225833892822,
        0.9999099969863892
      ],
      "min": [
        -0.9999960660934448,
        -0.9992085695266724,
        -0.9999494552612305
      ],
      "type": "VEC3"
    },
    {
      "bufferView": 1,
      "componentType": 5126,
      "count": 59435,
      "max": [
        0.999518632888794,
        0.9933022260665894
      ],
      "min": [
        0.0006518230657093227,
        0.0003533496637828648
      ],
      "type": "VEC2"
    },
    {
      "bufferView": 1,
      "byteOffset": 475480,
      "componentType": 5126,
      "count": 59435,
      "max": [
        0.999518632888794,
        0.9933022260665894
      ],
      "min": [
        0.0006518230657093227,
        0.0003533496637828648
      ],
      "type": "VEC2"
    },
    {
      "bufferView": 0,
      "componentType": 5125,
      "count": 341208,
      "type": "SCALAR"
    }
  ],
  "asset": {
    "extras": {
      "author": "vadim950556 (https://sketchfab.com/vadim950556)",
      "license": "CC-BY-4.0 (http://creativecommons.org/licenses/by/4.0/)",
      "source": "https://sketchfab.com/3d-models/3d-scaned-shark-plush-toy-867bb6cc590441a0a0bf0341da9b2c93",
      "title": "3D scaned Shark plush toy"
    },
    "generator": "Sketchfab-15.43.0",
    "version": "2.0"
  },
  "bufferViews": [
    {
      "buffer": 0,
      "byteLength": 1364832,
      "name": "floatBufferViews",
      "target": 34963
    },
    {
      "buffer": 0,
      "byteLength": 950960,
      "byteOffset": 1364832,
      "byteStride": 8,
      "name": "floatBufferViews",
      "target": 34962
    },
    {
      "buffer": 0,
      "byteLength": 1426440,
      "byteOffset": 2315792,
      "byteStride": 12,
      "name": "floatBufferViews",
      "target": 34962
    }
  ],
  "buffers": [
    {
      "byteLength": 3742232,
      "uri": "scene.bin"
    }
  ],
  "extensionsUsed": [
    "KHR_materials_unlit"
  ],
  "images": [
    {
      "uri": "textures/Material.000_baseColor.png"
    }
  ],
  "materials": [
    {
      "doubleSided": true,
      "extensions": {
        "KHR_materials_unlit": {}
      },
      "name": "Material.000",
      "pbrMetallicRoughness": {
        "baseColorTexture": {
          "index": 0
        },
        "metallicFactor": 0.0
      }
    }
  ],
  "meshes": [
    {
      "name": "texturedMesh_LOD0_Material.000_0",
      "primitives": [
        {
          "attributes": {
            "NORMAL": 1,
            "POSITION": 0,
            "TEXCOORD_0": 2,
            "TEXCOORD_1": 3
          },
          "indices": 4,
          "material": 0,
          "mode": 4
        }
      ]
    }
  ],
  "nodes": [
    {
      "children": [
        1
      ],
      "matrix": [
        1.0,
        -1.6081226229577292e-16,
        -3.5707495248565405e-32,
        0.0,
        0.0,
        2.220446049250313e-16,
        -1.0,
        0.0,
        1.6081226229577292e-16,
        1.0,
        2.220446049250313e-16,
        0.0,
        0.0,
        0.0,
        0.0,
        1.0
      ],
      "name": "Sketchfab_model"
    },
    {
      "children": [
        2
      ],
      "matrix": [
        1.0,
        0.0,
        0.0,
        0.0,
        0.0,
        0.0,
        1.0,
        0.0,
        0.0,
        -1.0,
        0.0,
        0.0,
        0.0,
        0.0,
        0.0,
        1.0
      ],
      "name": "f9e90a0f79294885aaee2b4c4c3d136c.fbx"
    },
    {
      "children": [
        3
      ],
      "name": "RootNode"
    },
    {
      "children": [
        4
      ],
      "matrix": [
        1.0,
        0.0,
        0.0,
        0.0,
        0.0,
        -1.6292067939183141e-07,
        -0.9999999999999868,
        0.0,
        0.0,
        0.9999999999999868,
        -1.6292067939183141e-07,
        0.0,
        0.2517758011817932,
        0.0,
        0.0,
        1.0
      ],
      "name": "texturedMesh_LOD0"
    },
    {
      "mesh": 0,
      "name": "texturedMesh_LOD0_Material.000_0"
    }
  ],
  "samplers": [
    {
      "magFilter": 9729,
      "minFilter": 9987,
      "wrapS": 10497,
      "wrapT": 10497
    }
  ],
  "scene": 0,
  "scenes": [
    {
      "name": "Sketchfab_Scene",
      "nodes": [
        0
      ]
    }
  ],
  "textures": [
    {
      "sampler": 0,
      "source": 0
    }
  ]
}
